<?xml version="1.0" encoding="utf-8"?>
<svg id="svg2" viewBox="0 0 41.351 27.356" version="1.1" xmlns="http://www.w3.org/2000/svg">
  <defs id="defs6">
    <clipPath id="clipPath18">
      <path id="path20" d="m0-0.11525h34v9h-34v-9z"/>
    </clipPath>
    <mask id="mask22">
      <g id="g24">
        <g id="g26" clip-path="url(#clipPath18)">
          <path id="path28" style="fill:#000000;fill-opacity:.14060" d="m0-0.11525h34v9h-34v-9z"/>
        </g>
      </g>
    </mask>
    <clipPath id="clipPath34">
      <path id="path36" d="m0-0.11525h34v9h-34v-9z"/>
    </clipPath>
    <clipPath id="clipPath38">
      <path id="path40" d="m0 0h34v9h-34v-9z"/>
    </clipPath>
  </defs>
  <g id="g10" transform="matrix(1.25 0 0 -1.25 0 27.356)">
    <g id="g12">
      <g id="g14">
        <g id="g30" mask="url(#mask22)">
          <g id="g42">
            <g id="g44" clip-path="url(#clipPath34)">
              <g id="g46" transform="translate(0 -.11525)">
                <g id="g50">
                  <g id="g52" clip-path="url(#clipPath38)">
                    <g id="g54">
                      <path id="path56" style="fill-rule:evenodd;fill:#000000" d="m32.719 6.801c0.508-0.321 0.48-0.586-0.078-0.801-0.774-0.188-1.293-0.332-1.563-0.441-0.293-0.133-0.492-0.266-0.598-0.399-0.347-0.293-0.535-0.453-0.558-0.48-0.856-0.801-1.547-1.399-2.082-1.801-0.238-0.16-0.586-0.332-1.039-0.52-0.535-0.187-1.082-0.453-1.641-0.8-0.586-0.371-1.265-0.559-2.039-0.559-1.414 0.027-2.348 0.012-2.801-0.039-2.16-0.242-3.547-0.359-4.16-0.359-0.933 0-1.867-0.122-2.801-0.364-0.558-0.133-1-0.16-1.32-0.078-1.144 0.32-1.758 0.492-1.84 0.52-0.531 0.105-1.574 0.281-3.121 0.519-0.933 0.055-1.719 0.176-2.359 0.36-0.293 0.109-0.918 0.48-1.879 1.121-0.906 0.613-1.535 0.961-1.879 1.039-0.32 0.054-0.574 0.226-0.762 0.519-0.133 0.215-0.199 0.403-0.199 0.563 0 0.105 0.16 0.254 0.48 0.437 0.293 0.16 0.559 0.27 0.801 0.321 0.293 0.054 0.946 0.64 1.957 1.761l9.16 0.078c0.829 0 3.282 0.161 7.364 0.481 3.84 0.32 6.476 0.453 7.918 0.402 2.558-0.109 3.425-0.226 2.601-0.359 0.641-0.11 1.067-0.215 1.278-0.32 0.187-0.11 0.574-0.375 1.16-0.801z"/>
                    </g>
                  </g>
                </g>
              </g>
            </g>
          </g>
        </g>
      </g>
      <path id="path58" style="fill-rule: evenodd; fill: rgb(93, 102, 199);" d="m24.398 15.764c1.922-2.641 3.723-5.868 5.403-9.68-0.481-0.719-1.801-1.559-3.961-2.52-1.785-0.8-3.305-1.347-4.559-1.64-1.574-0.348-3.535-0.52-5.883-0.52-5.918 0-9.625 0.602-11.117 1.801-0.746 0.586-1.386 1.481-1.922 2.68l-0.597 1.64c1.465 1.707 2.691 3.504 3.679 5.399 0.692 1.308 1.387 2.133 2.079 2.48 1.441 0.719 2.878 1.082 4.32 1.082l1.879 0.117c1.308 0.188 2.109 0.508 2.402 0.961 0.481 0.719 1.918 2.161 4.317 4.321 0.722-1.442 2.042-3.481 3.96-6.121z"/>
      <path id="path60" style="fill-rule: evenodd; fill: rgb(12, 78, 136);" d="m23.121 18.365c0.531-0.695 1.438-2.027 2.719-4 0.851-1.094 1.586-2.375 2.199-3.84 0.32-0.695 0.668-1.332 1.039-1.918 0.293-0.535 0.641-1.375 1.043-2.523-1.519-1.652-2.894-2.68-4.121-3.078-2.238-0.719-3.691-1.133-4.359-1.242 0.187-0.106-0.547-0.239-2.2-0.399-0.402-0.027-1.148-0.121-2.242-0.281-0.453-0.051-1.121-0.051-2 0-2.398 0.187-3.918 0.281-4.558 0.281-1.121 0.055-2.133 0.149-3.039 0.281-1.016 0.161-1.547 0.317-1.602 0.481-0.055 0.105-0.305 0.25-0.762 0.437-0.558 0.243-1.023 0.508-1.398 0.801-0.426 0.321-0.735 0.707-0.918 1.16l-0.16 0.559 0.597-0.52c0.481-0.347 0.84-0.546 1.082-0.601 0.184-0.051 0.547-0.199 1.079-0.438 0.425-0.187 0.8-0.281 1.121-0.281 0.054 0 0.48-0.039 1.281-0.121 0.476-0.051 0.89-0.012 1.238 0.121 0.719 0.215 1.442 0.652 2.16 1.32 0.16 0.133 0.293 0.332 0.399 0.598 0.136 0.32 0.242 0.59 0.32 0.801 0.453 0.773 0.773 1.359 0.961 1.762l0.879 1.32 0.441-2.281c0.078-0.266 0.149-0.625 0.2-1.078 0.082-0.375 0.292-0.653 0.64-0.84 0.508-0.27 1.188-0.426 2.039-0.481 1.039-0.082 1.801 0.078 2.281 0.481 0.559 0.425 0.934 0.8 1.122 1.117 0.16 0.32 0.238 0.762 0.238 1.32 0 0.266-0.188 0.84-0.559 1.723-0.375 0.851-0.558 1.703-0.558 2.558 0 0.747-0.254 1.747-0.762 3-0.399 0.985-0.492 1.614-0.281 1.879 0.265 0.293 0.453 0.614 0.558 0.961 0.11 0.426 0.176 0.668 0.203 0.719 0.051 0.105 0.067 0.32 0.039 0.641-0.027 0.32 0.028 0.601 0.161 0.839 0.238 0.454 0.507 1.215 0.8 2.282l2.68-3.52z"/>
      <path id="path62" style="fill-rule: evenodd; fill: rgb(200, 207, 243);" d="m16.879 17.205c-0.106-0.055-0.227-0.187-0.359-0.398-0.106-0.188-0.227-0.309-0.36-0.364-0.082-0.05-0.281-0.117-0.598-0.199-0.296-0.055-0.523-0.144-0.683-0.281-0.586-0.477-0.934-0.774-1.039-0.879-0.559-0.613-0.895-1.012-1-1.199-0.266-0.614-0.387-1.012-0.36-1.199l0.161-1.04c-0.161 0.477-0.309 0.84-0.442 1.079-0.371 0.398-0.812 0.718-1.32 0.961-0.453 0.292-0.934 0.492-1.438 0.597-0.961 0.27-1.48 0.403-1.562 0.403l-1.52-0.122c0.321 0.426 0.786 0.786 1.403 1.082 0.023 0 0.343 0.161 0.957 0.477 0.269 0.137 0.547 0.215 0.84 0.242l2.281 0.121c0.558 0.051 1.039 0.094 1.441 0.117 0.399 0.083 0.907 0.176 1.52 0.282 0.48 0.133 0.824 0.332 1.039 0.601l1.762 1.918c0.238 0.242 0.519 0.535 0.839 0.879l2 1.602c-0.027-0.641-0.132-1.172-0.32-1.602-0.266-0.637-0.398-1.172-0.398-1.597 0-0.188 0.011-0.387 0.039-0.602 0-0.16-0.094-0.359-0.282-0.598l-0.761-1.281c-0.078-0.082-0.133-0.148-0.16-0.199-0.051-0.082-0.039-0.215 0.043-0.403 0.132-0.32 0.293-0.785 0.476-1.398 0.27-0.508 0.402-0.84 0.402-1 0-0.105 0.055-0.281 0.161-0.519-0.453 0.613-0.735 1.039-0.84 1.277-0.293 0.269-0.469 0.508-0.52 0.723-0.16 0.585-0.242 0.906-0.242 0.96v0.598l0.242 0.481c0.16 0.132 0.281 0.386 0.36 0.761l0.039 0.84-0.641-0.32-1.16-0.801z"/>
      <path id="path64" style="fill-rule: evenodd; fill: rgb(200, 207, 243);" d="m7.281 9.326c-0.136 0-0.469-0.055-1-0.16-0.215-0.055-0.496-0.281-0.84-0.68l-1.121-1.121c0.106 0.399 0.227 0.707 0.36 0.918l0.718 1.121c0.137 0.215 0.575 0.547 1.321 1 0.32 0.188 0.562 0.242 0.722 0.16 0.504-0.214 0.786-0.32 0.84-0.32 0 0.055 0.012 0.094 0.039 0.121 0.055 0.078 0.172 0.106 0.36 0.078 0.508-0.05 0.945-0.05 1.32 0 0.293 0.028 0.559 0 0.801-0.078 0.133-0.054 0.398-0.176 0.801-0.359 0.503-0.16 0.972-0.375 1.398-0.641l-2.48 0.281-1.321-0.281-0.48-0.16c-0.024 0.027-0.133 0.039-0.321 0.039l-1.117 0.082z"/>
      <path id="path66" style="fill-rule: evenodd; fill: rgb(243, 200, 200);" d="m16.48 11.283c0.079 0.137 0.426 0.203 1.04 0.203 0.558-0.215 0.734-0.375 0.519-0.48-0.238-0.11-0.531-0.16-0.879-0.16-0.242-0.028-0.348-0.067-0.32-0.121v-0.161l-0.762-0.718c-0.211-0.215-0.437-0.387-0.68-0.52l1.082 1.957z"/>
      <path id="path68" style="fill-rule: evenodd; fill: rgb(200, 207, 243);" d="m24.32 14.603 1-0.398-0.039-0.32c-0.32-0.188-0.652-0.321-1-0.399-0.16-0.054-0.347-0.136-0.558-0.242-0.243-0.426-0.403-0.707-0.485-0.84-0.078-0.078-0.226-0.734-0.437-1.961v-0.718c-0.133 0.453-0.242 0.949-0.321 1.48-0.054 0.266-0.093 0.426-0.121 0.481-0.105 0.105-0.199 0.304-0.281 0.597-0.105 0.348-0.105 0.59 0 0.723 0.188 0.238 0.309 0.437 0.363 0.597 0.211 0.614 0.532 1.067 0.957 1.36 0.161 0.109 0.469-0.012 0.922-0.36z"/>
      <path id="path70" style="fill-rule: evenodd; fill: rgb(200, 207, 243);" d="m24.078 5.564 0.043 1.082c0.027 0.133 0.067 0.266 0.117 0.399 0.11 0.32 0.242 0.535 0.403 0.641 0.132 0.105 0.187 0.253 0.16 0.441 0 0.184 0.011 0.32 0.039 0.398 0.265 0.426 0.547 0.696 0.84 0.801 0.773 0.188 1.32 0.094 1.64-0.281l-0.558-0.16c-0.133-0.028-0.215-0.078-0.242-0.16-0.051-0.106-0.106-0.184-0.161-0.239l-0.636-0.441c-0.082-0.051-0.161-0.149-0.243-0.281-0.082-0.133-0.148-0.211-0.199-0.239-0.187-0.242-0.308-0.386-0.359-0.441-0.293-0.371-0.496-0.625-0.602-0.758l-0.242-0.762z"/>
    </g>
  </g>
</svg>