<?xml version="1.0" encoding="utf-8"?>
<svg version="1.1" id="Layer_1" x="0px" y="0px" viewBox="0 0 430.01 430.01" style="enable-background:new 0 0 430.01 430.01;" xmlns="http://www.w3.org/2000/svg">
  <g>
    <path style="fill:#CCCCCC;" d="M49.56,376.01c-0.06,12.17,4.82,23.22,12.76,31.23s18.94,13,31.11,13.06s23.22-4.82,31.23-12.76 s13-18.93,13.06-31.1v-0.01c0-0.15,0-0.3,0-0.44c-0.06-11.99-4.92-22.86-12.76-30.78c-7.93-8.02-18.93-13.01-31.11-13.07 c-11.33-0.05-21.67,4.17-29.51,11.16c-0.59,0.52-1.17,1.06-1.72,1.61C54.6,352.85,49.62,363.84,49.56,376.01z M93.58,388.5 c-6.78-0.03-12.25-5.55-12.22-12.34c0.03-6.78,5.56-12.25,12.34-12.22c6.78,0.04,12.25,5.56,12.22,12.34S100.36,388.54,93.58,388.5 z"/>
    <rect x="68.34" y="177" style="fill:#F73E3E;" width="166.67" height="51.34"/>
    <path style="fill:#F9911E;" d="M81.36,376.16c-0.03,6.79,5.44,12.31,12.22,12.34c6.78,0.04,12.31-5.44,12.34-12.22 s-5.44-12.3-12.22-12.34C86.92,363.91,81.39,369.38,81.36,376.16z"/>
    <rect x="87.01" y="280.34" style="fill:#F73E3E;" width="55.92" height="33.33"/>
    <rect x="87.01" y="265.67" style="fill:#F73E3E;" width="55.92" height="14.67"/>
    <rect x="87.01" y="249" style="fill:#F73E3E;" width="55.92" height="16.67"/>
    <path style="fill:#E6E6E6;" d="M115.53,86.086l-35.94,35.94c19.85,19.85,52.04,19.85,71.89,0s19.85-52.04,0-71.89l-35.94,35.95 H115.53z"/>
    <rect x="142.93" y="265.67" style="fill:#23464F;" width="18.74" height="14.67"/>
    <rect x="142.93" y="280.34" style="fill:#23464F;" width="18.74" height="33.33"/>
    <rect x="161.67" y="280.34" style="fill:#F73E3E;" width="55.93" height="33.33"/>
    <rect x="161.67" y="265.67" style="fill:#F73E3E;" width="55.93" height="14.67"/>
    <rect x="161.67" y="249" style="fill:#F73E3E;" width="55.93" height="16.67"/>
    <path style="fill:#CCCCCC;" d="M168.68,376.02c-0.06,12.17,4.82,23.21,12.76,31.22s18.94,13,31.11,13.06s23.22-4.82,31.23-12.76 s13-18.93,13.06-31.1v-0.01c0-0.15,0-0.3,0-0.44c-0.06-11.99-4.92-22.86-12.76-30.78c-7.93-8.02-18.93-13.01-31.11-13.07 c-12.17-0.06-23.22,4.83-31.23,12.77c-8.02,7.94-13,18.93-13.06,31.1L168.68,376.02L168.68,376.02z M212.7,388.5 c-6.78-0.03-12.25-5.55-12.22-12.34c0.03-6.78,5.56-12.25,12.34-12.22c6.78,0.04,12.25,5.56,12.22,12.34S219.48,388.54,212.7,388.5 z"/>
    <path style="fill:#F9911E;" d="M200.48,376.16c-0.03,6.79,5.44,12.31,12.22,12.34c6.78,0.04,12.31-5.44,12.34-12.22 s-5.44-12.3-12.22-12.34C206.04,363.91,200.51,369.38,200.48,376.16z"/>
    <polygon style="fill:#23464F;" points="217.6,313.67 361.47,313.67 378.76,313.67 378.76,228.34 341.34,228.34 270.67,228.34 &#10;&#9;&#9;235.01,228.34 68.34,228.34 46.76,228.34 46.76,313.67 64.34,313.67 87.01,313.67 87.01,280.34 87.01,265.67 87.01,249 142.93,249 &#10;&#9;&#9;142.93,265.67 161.67,265.67 161.67,249 217.6,249 217.6,265.67 217.6,280.34 &#9;"/>
    <polygon style="fill:#F73E3E;" points="270.67,207.67 270.67,228.34 341.34,228.34 341.34,207.67 321.67,207.67 290.34,207.67 &#9;"/>
    <path style="fill:#CCCCCC;" d="M331.67,420.3c12.17,0.06,23.22-4.82,31.23-12.76s13-18.93,13.06-31.1v-0.01 c0.06-12.17-4.82-23.22-12.76-31.23c-0.56-0.57-1.14-1.12-1.73-1.65c-7.77-7.04-18.06-11.35-29.37-11.41h-0.01 c-12.17-0.05-23.22,4.83-31.23,12.77c-8.02,7.94-13,18.93-13.06,31.1v0.01c-0.06,12.17,4.82,23.21,12.76,31.22 S319.5,420.24,331.67,420.3z M331.82,388.5c-6.78-0.03-12.25-5.55-12.22-12.34c0.03-6.78,5.56-12.25,12.34-12.22 c6.78,0.04,12.25,5.56,12.22,12.34S338.6,388.54,331.82,388.5z"/>
    <rect x="290.34" y="42.34" style="fill:#E6E6E6;" width="31.33" height="165.33"/>
    <polygon style="fill:#F73E3E;" points="290.34,5 290.34,42.34 321.67,42.34 353.67,42.34 353.67,35.67 353.67,11.67 353.67,5 &#9;"/>
    <path style="fill:#F9911E;" d="M319.6,376.16c-0.03,6.79,5.44,12.31,12.22,12.34c6.78,0.04,12.31-5.44,12.34-12.22 s-5.44-12.3-12.22-12.34C325.16,363.91,319.63,369.38,319.6,376.16z"/>
    <rect x="353.67" y="11.67" style="fill:#F73E3E;" width="19.34" height="24"/>
    <path style="fill:#999999;" d="M361.47,313.67H217.6h-55.93h-18.74H87.01H64.34v29.63c7.84-6.99,18.18-11.21,29.51-11.16 c12.18,0.06,23.18,5.05,31.11,13.07c7.84,7.92,12.7,18.79,12.76,30.78l30.96,0.03v-0.01c0.06-12.17,5.04-23.16,13.06-31.1 c8.01-7.94,19.06-12.83,31.23-12.77c12.18,0.06,23.18,5.05,31.11,13.07c7.84,7.92,12.7,18.79,12.76,30.78l30.96,0.03v-0.01 c0.06-12.17,5.04-23.16,13.06-31.1c8.01-7.94,19.06-12.82,31.23-12.77h0.01c11.31,0.06,21.6,4.37,29.37,11.41V313.67z"/>
    <path style="fill:#333333;" d="M331.895,393.5c-0.035,0-0.069,0-0.104,0c-9.519-0.042-17.232-7.831-17.19-17.362l0,0 c0.042-9.499,7.79-17.198,17.284-17.198c0.026,0,0.052,0,0.077,0c9.528,0.056,17.24,7.845,17.199,17.361 c-0.021,4.619-1.841,8.953-5.125,12.203C340.777,391.729,336.47,393.5,331.895,393.5z M324.6,376.183 c-0.018,4.017,3.23,7.299,7.242,7.317c0.015,0,0.029,0,0.044,0c1.931,0,3.743-0.746,5.115-2.103c1.384-1.37,2.15-3.195,2.159-5.14 c0.018-4.011-3.235-7.294-7.25-7.317c-0.011,0-0.021,0-0.032,0C327.883,368.94,324.617,372.182,324.6,376.183L324.6,376.183z"/>
    <path style="fill:#333333;" d="M 287.171 381.02 L 256.835 380.99 C 254.073 380.987 251.837 378.746 251.84 375.985 C 251.843 373.225 254.081 370.99 256.84 370.99 C 256.842 370.99 256.843 370.99 256.845 370.99 L 287.172 371.02 C 289.934 371.02 292.172 373.259 292.172 376.02 C 292.172 378.781 289.933 381.02 287.171 381.02 Z"/>
    <path style="fill:#333333;" d="M212.774,425.3c-0.083,0-0.166,0-0.249,0c-13.105-0.065-25.406-5.229-34.637-14.54 c-9.227-9.309-14.273-21.655-14.209-34.764c0.064-13.119,5.228-25.416,14.54-34.637l0,0c9.256-9.175,21.51-14.219,34.526-14.219 c0.083,0,0.165,0,0.248,0c13.122,0.065,25.425,5.233,34.642,14.554c9.094,9.187,14.139,21.358,14.204,34.27v0.466 c-0.065,13.135-5.229,25.432-14.541,34.661C238.05,420.26,225.797,425.3,212.774,425.3z M212.747,337.14 c-10.363,0-20.117,4.016-27.488,11.322l-0.002,0.002c-7.414,7.341-11.526,17.133-11.577,27.571 c-0.051,10.447,3.966,20.275,11.311,27.686c7.352,7.416,17.147,11.529,27.584,11.58c0.065,0,0.133,0,0.198,0 c10.37,0,20.123-4.012,27.486-11.311c7.417-7.351,11.529-17.143,11.581-27.574v-0.425c-0.052-10.254-4.069-19.945-11.313-27.262 c-7.339-7.421-17.133-11.536-27.581-11.587C212.88,337.14,212.813,337.14,212.747,337.14z"/>
    <path style="fill:#333333;" d="M212.775,393.5c-0.035,0-0.069,0-0.104,0c-9.518-0.042-17.232-7.831-17.191-17.361v-0.001 c0.042-9.499,7.79-17.198,17.284-17.198c0.026,0,0.052,0,0.077,0c9.528,0.056,17.24,7.845,17.199,17.361 c-0.021,4.619-1.841,8.953-5.125,12.204C221.657,391.729,217.35,393.5,212.775,393.5z M205.479,376.183 c-0.017,4.017,3.232,7.299,7.243,7.317c1.953-0.005,3.775-0.736,5.157-2.103c1.385-1.37,2.151-3.195,2.16-5.14 c0.018-4.011-3.235-7.294-7.25-7.317c-0.011,0-0.021,0-0.032,0C208.763,368.94,205.497,372.182,205.479,376.183L205.479,376.183z"/>
    <path style="fill:#333333;" d="M 167.409 381.02 L 137.715 380.99 C 134.953 380.987 132.717 378.746 132.72 375.985 C 132.723 373.225 134.961 370.99 137.72 370.99 C 137.722 370.99 137.723 370.99 137.725 370.99 L 167.41 371.02 C 170.172 371.02 172.41 373.259 172.41 376.02 C 172.41 378.781 170.171 381.02 167.409 381.02 Z"/>
    <path style="fill:#333333;" d="M 261.541 381.46 C 261.529 381.46 261.52 381.46 261.509 381.46 L 258.781 381.42 C 256.02 381.408 253.791 379.16 253.802 376.399 C 253.814 373.645 256.05 371.42 258.802 371.42 C 258.809 371.42 258.816 371.42 258.823 371.42 L 261.57 371.46 C 264.332 371.478 266.556 373.731 266.539 376.492 C 266.522 379.242 264.287 381.46 261.541 381.46 Z"/>
    <path style="fill:#333333;" d="M93.654,425.3c-0.083,0-0.166,0-0.249,0c-13.105-0.065-25.406-5.229-34.637-14.54 c-9.228-9.309-14.273-21.658-14.209-34.774l0,0c0.065-13.111,5.23-25.409,14.543-34.628c0.579-0.58,1.235-1.194,1.931-1.808 c8.974-8.001,20.558-12.41,32.619-12.41c0.073,0,0.146,0,0.22,0c13.124,0.065,25.427,5.233,34.644,14.554 c9.095,9.188,14.14,21.359,14.204,34.271v0.465c-0.064,13.133-5.228,25.43-14.54,34.661C118.93,420.26,106.677,425.3,93.654,425.3z M54.56,376.034c-0.051,10.443,3.966,20.275,11.311,27.686c7.352,7.416,17.147,11.529,27.584,11.58c0.065,0,0.133,0,0.198,0 c10.369,0,20.123-4.012,27.488-11.312c7.416-7.351,11.528-17.144,11.579-27.573v-0.426c-0.051-10.253-4.068-19.944-11.313-27.262 c-7.339-7.421-17.133-11.536-27.581-11.587c-0.058,0-0.117,0-0.175,0c-9.603,0-18.823,3.509-25.983,9.892 c-0.559,0.493-1.06,0.962-1.51,1.413C58.724,355.803,54.611,365.595,54.56,376.034L54.56,376.034z"/>
    <path style="fill:#333333;" d="M93.655,393.5c-0.035,0-0.069,0-0.104,0c-9.518-0.042-17.232-7.831-17.191-17.361v-0.001 c0.042-9.499,7.79-17.198,17.285-17.198c0.026,0,0.052,0,0.077,0c9.529,0.056,17.24,7.845,17.198,17.362 c-0.021,4.618-1.841,8.952-5.125,12.203C102.537,391.729,98.229,393.5,93.655,393.5z M86.359,376.183 c-0.017,4.017,3.232,7.299,7.243,7.317c0.015,0,0.029,0,0.044,0c1.931,0,3.742-0.746,5.113-2.103c1.385-1.37,2.151-3.195,2.16-5.14 c0.018-4.011-3.234-7.294-7.249-7.317c-0.011,0-0.021,0-0.032,0C89.643,368.94,86.377,372.182,86.359,376.183L86.359,376.183z"/>
    <path style="fill:#333333;" d="M 142.421 381.46 C 142.409 381.46 142.4 381.46 142.389 381.46 L 139.381 381.42 C 136.62 381.408 134.391 379.16 134.402 376.399 C 134.414 373.645 136.65 371.42 139.402 371.42 C 139.409 371.42 139.416 371.42 139.423 371.42 L 142.45 371.46 C 145.212 371.478 147.436 373.731 147.419 376.492 C 147.402 379.242 145.167 381.46 142.421 381.46 Z"/>
    <path style="fill:#333333;" d="M383.76,313.67h-10v-80.33h-32.42v-10h37.42c2.762,0,5,2.239,5,5V313.67z"/>
    <rect x="235.01" y="223.34" style="fill:#333333;" width="35.66" height="10"/>
    <path style="fill:#333333;" d="M51.76,313.67h-10v-85.33c0-2.761,2.238-5,5-5h21.58v10H51.76V313.67z"/>
    <rect x="285.34" y="42.34" style="fill:#333333;" width="10" height="165.33"/>
    <path style="fill: rgb(51, 51, 51);" d="M 321.67 212.67 C 318.908 212.67 316.67 210.033 316.67 206.781 L 316.67 70.942 C 316.67 67.69 318.908 65.053 321.67 65.053 C 324.432 65.053 326.67 67.69 326.67 70.942 L 326.67 206.781 C 326.67 210.033 324.432 212.67 321.67 212.67 Z"/>
    <path style="fill:#333333;" d="M321.67,78.67c-2.762,0-5-2.239-5-5V42.34c0-2.761,2.238-5,5-5s5,2.239,5,5v31.33 C326.67,76.431,324.432,78.67,321.67,78.67z"/>
    <path style="fill:#333333;" d="M341.34,233.34h-70.67c-2.762,0-5-2.239-5-5v-20.67c0-2.761,2.238-5,5-5h70.67c2.762,0,5,2.239,5,5 v20.67C346.34,231.101,344.102,233.34,341.34,233.34z M275.67,223.34h60.67v-10.67h-60.67L275.67,223.34L275.67,223.34z"/>
    <path style="fill:#333333;" d="M 353.67 16.67 C 350.908 16.67 348.67 14.431 348.67 11.67 L 348.67 10 L 305.654 10 C 302.892 10 300.654 7.761 300.654 5 C 300.654 2.239 302.892 0 305.654 0 L 353.67 0 C 356.432 0 358.67 2.239 358.67 5 L 358.67 11.67 C 358.67 14.431 356.432 16.67 353.67 16.67 Z"/>
    <path style="fill:#333333;" d="M353.67,47.34h-63.33c-2.762,0-5-2.239-5-5V5c0-2.761,2.238-5,5-5h16c2.762,0,5,2.239,5,5 s-2.238,5-5,5h-11v27.34h53.33v-1.67c0-2.761,2.238-5,5-5s5,2.239,5,5v6.67C358.67,45.101,356.432,47.34,353.67,47.34z"/>
    <path style="fill:#333333;" d="M 235.01 233.34 L 68.34 233.34 C 65.578 233.34 63.34 231.101 63.34 228.34 L 63.34 177 C 63.34 174.239 65.578 172 68.34 172 L 216.637 172 C 219.399 172 221.985 174.402 221.985 177.163 C 221.985 179.924 219.399 182 216.637 182 L 73.34 182 L 73.34 223.34 L 230.01 223.34 L 230.01 182 L 212.34 182 C 209.578 182 207.34 179.761 207.34 177 C 207.34 174.239 209.578 172 212.34 172 L 235.01 172 C 237.772 172 240.01 174.239 240.01 177 L 240.01 228.34 C 240.01 231.101 237.771 233.34 235.01 233.34 Z"/>
    <path style="fill:#333333;" d="M115.535,141.914c-14.915,0-28.937-5.808-39.48-16.352c-1.953-1.953-1.953-5.119,0-7.071 l35.939-35.94c1.951-1.952,5.119-1.952,7.07,0c1.953,1.953,1.953,5.119,0,7.071L86.85,121.837 c8.107,6.53,18.123,10.077,28.685,10.077c12.243,0,23.753-4.767,32.409-13.423c8.656-8.656,13.423-20.166,13.423-32.409 s-4.767-23.753-13.423-32.409c-1.953-1.953-1.953-5.119,0-7.071c1.951-1.952,5.119-1.952,7.07,0 c10.545,10.545,16.353,24.566,16.353,39.48c0,14.915-5.808,28.936-16.353,39.48C144.471,136.106,130.449,141.914,115.535,141.914z"/>
    <path style="fill:#333333;" d="M 115.54 91.086 C 114.261 91.086 112.981 90.598 112.005 89.622 C 110.052 87.67 110.052 84.504 112.004 82.551 L 145.833 48.074 C 147.786 46.121 150.951 46.121 152.904 48.073 C 154.857 50.025 154.857 53.191 152.905 55.144 L 119.076 89.621 C 118.1 90.598 116.819 91.086 115.54 91.086 Z"/>
    <path style="fill:#333333;" d="M115.54,91.086h-0.011c-1.327,0-2.599-0.527-3.537-1.466l-14.05-14.06 c-1.951-1.953-1.95-5.119,0.003-7.071c1.953-1.952,5.118-1.952,7.071,0.002l13.956,13.966c0.962,0.911,1.562,2.2,1.562,3.628 C120.534,88.847,118.302,91.086,115.54,91.086z"/>
    <path style="fill:#333333;" d="M407.67,318.67h-46.2c-2.762,0-5-2.239-5-5s2.238-5,5-5h46.2c2.762,0,5,2.239,5,5 S410.432,318.67,407.67,318.67z"/>
    <path style="fill:#333333;" d="M64.34,318.67h-42c-2.762,0-5-2.239-5-5s2.238-5,5-5h42c2.762,0,5,2.239,5,5 S67.102,318.67,64.34,318.67z"/>
    <path style="fill:#333333;" d="M361.47,348.55c-2.762,0-5-2.239-5-5v-24.88h-62.796c-2.762,0-5-2.239-5-5s2.238-5,5-5h67.796 c2.762,0,5,2.239,5,5v29.88C366.47,346.311,364.231,348.55,361.47,348.55z"/>
    <path style="fill:#333333;" d="M 301.147 318.67 L 250.042 318.67 C 247.28 318.67 245.042 316.431 245.042 313.67 C 245.042 310.909 247.28 308.67 250.042 308.67 L 301.147 308.67 C 303.909 308.67 306.147 310.909 306.147 313.67 C 306.147 316.431 303.909 318.67 301.147 318.67 Z"/>
    <path style="fill:#333333;" d="M258.34,318.67H217.6c-2.762,0-5-2.239-5-5s2.238-5,5-5h40.74c2.762,0,5,2.239,5,5 S261.102,318.67,258.34,318.67z"/>
    <path style="fill:#333333;" d="M161.67,318.67h-18.74c-2.762,0-5-2.239-5-5s2.238-5,5-5h18.74c2.762,0,5,2.239,5,5 S164.432,318.67,161.67,318.67z"/>
    <path style="fill:#333333;" d="M64.34,348.3c-2.762,0-5-2.239-5-5v-29.63c0-2.761,2.238-5,5-5h22.67c2.762,0,5,2.239,5,5 s-2.238,5-5,5H69.34v24.63C69.34,346.061,67.102,348.3,64.34,348.3z"/>
    <path style="fill:#333333;" d="M142.93,318.67H87.01c-2.762,0-5-2.239-5-5V249c0-2.761,2.238-5,5-5h55.92c2.762,0,5,2.239,5,5 v64.67C147.93,316.431,145.691,318.67,142.93,318.67z M92.01,308.67h45.92V254H92.01V308.67z"/>
    <path style="fill:#333333;" d="M217.6,318.67h-55.93c-2.762,0-5-2.239-5-5V249c0-2.761,2.238-5,5-5h55.93c2.762,0,5,2.239,5,5 v64.67C222.6,316.431,220.361,318.67,217.6,318.67z M166.67,308.67h45.93V254h-45.93L166.67,308.67L166.67,308.67z"/>
    <path style="fill:#333333;" d="M373.01,40.67h-19.34c-2.762,0-5-2.239-5-5v-24c0-2.761,2.238-5,5-5h19.34c2.762,0,5,2.239,5,5v24 C378.01,38.431,375.771,40.67,373.01,40.67z M358.67,30.67h9.34v-14h-9.34V30.67z"/>
    <path style="fill:#FFFFFF;" d="M362.673,299.67c-2.209,0-4-1.791-4-4v-8.667c0-2.209,1.791-4,4-4s4,1.791,4,4v8.667 C366.673,297.879,364.882,299.67,362.673,299.67z"/>
    <path style="fill:#FFFFFF;" d="M362.673,273.003c-2.209,0-4-1.791-4-4V243.67c0-2.209,1.791-4,4-4s4,1.791,4,4v25.333 C366.673,271.212,364.882,273.003,362.673,273.003z"/>
    <path style="fill:#333333;" d="M226.64,270.67H77.97c-2.762,0-5-2.239-5-5s2.238-5,5-5h148.67c2.762,0,5,2.239,5,5 S229.401,270.67,226.64,270.67z"/>
    <path style="fill:#333333;" d="M226.64,285.34H77.97c-2.762,0-5-2.239-5-5s2.238-5,5-5h148.67c2.762,0,5,2.239,5,5 S229.401,285.34,226.64,285.34z"/>
    <path style="fill:#333333;" d="M176.673,182h-47c-1.656,0-3.206-0.82-4.137-2.191s-1.122-3.113-0.511-4.653l21.807-54.974 c0.738-1.861,2.516-3.103,4.518-3.155c0.043-0.001,0.087-0.001,0.131-0.001c1.95,0,3.729,1.136,4.545,2.917l25.193,54.974 c0.709,1.548,0.582,3.351-0.338,4.784C179.961,181.133,178.376,182,176.673,182z M137.035,172h31.847l-17.071-37.25L137.035,172z"/>
    <path style="fill:#333333;" d="M 332.772 425.795 C 332.689 425.795 332.606 425.795 332.523 425.795 C 319.418 425.73 307.117 420.566 297.886 411.255 C 288.659 401.946 283.613 389.6 283.677 376.491 C 283.741 363.372 288.905 351.075 298.217 341.854 L 298.217 341.854 C 307.473 332.679 319.727 327.635 332.743 327.635 C 332.826 327.635 332.908 327.635 332.991 327.635 C 346.113 327.7 358.416 332.868 367.633 342.189 C 376.727 351.376 381.772 363.547 381.837 376.459 L 381.837 376.925 C 381.772 390.06 376.608 402.357 367.296 411.586 C 358.048 420.755 345.795 425.795 332.772 425.795 Z M 332.745 337.635 C 322.382 337.635 312.628 341.651 305.257 348.957 L 305.255 348.959 C 297.841 356.3 293.729 366.092 293.678 376.53 C 293.627 386.977 297.644 396.805 304.989 404.216 C 312.341 411.632 322.136 415.745 332.573 415.796 C 332.638 415.796 332.706 415.796 332.771 415.796 C 343.141 415.796 352.894 411.784 360.257 404.485 C 367.674 397.134 371.786 387.342 371.838 376.911 L 371.838 376.486 C 371.786 366.232 367.769 356.541 360.525 349.224 C 353.186 341.803 343.392 337.688 332.944 337.637 C 332.878 337.635 332.811 337.635 332.745 337.635 Z"/>
  </g>
  <g/>
  <g/>
  <g/>
  <g/>
  <g/>
  <g/>
  <g/>
  <g/>
  <g/>
  <g/>
  <g/>
  <g/>
  <g/>
  <g/>
  <g/>
</svg>