<?xml version="1.0" encoding="utf-8"?>
<svg id="svg1901" viewBox="0 0 426.73 746.26" version="1.0" xmlns="http://www.w3.org/2000/svg">
  <g id="layer1" transform="translate(579.31 268.72)">
    <g id="g3243">
      <path id="path3217" style="fill-rule:evenodd;stroke:#000000;stroke-width:10;fill:#ececec" d="m-367.54-263.72c-30.79 24.5-267.46 229.89-88.19 623.22h178.6 0.65c179.27-393.33-57.39-598.69-88.19-623.19l-2.87-0.03z"/>
      <path id="path2419" style="fill-rule: evenodd; stroke: rgb(0, 0, 0); stroke-width: 1px; fill: rgb(255, 0, 0);" d="m-486.89-102.24l43.43-79.8 60.61-68.69 17.17-13.14 64.65 67.68 50.51 81.83 4.04 17.169-241.42-1.011"/>
      <path id="path2408" style="fill-rule:evenodd;stroke:#000000;stroke-width:10;fill:#ff0000" d="m-511.14 201.81s-107.07-1.33-42.42 270.72c0 0 6.06-227.16 62.63-199.15"/>
      <path id="path2410" style="fill-rule:evenodd;stroke:#000000;stroke-width:10;fill:#ff0000" d="m-220.76 201.81s107.08-1.33 42.43 270.72c0 0-6.06-227.16-62.63-199.15"/>
      <path id="path2382" style="stroke:#000000;stroke-width:10;fill:none" d="m-367.54-263.72c-30.79 24.5-267.46 229.89-88.19 623.22h178.6 0.65c179.27-393.33-57.39-598.69-88.19-623.19l-2.87-0.03z"/>
      <path id="path2394" style="stroke:#000000;stroke-width:10;fill:none" d="m-486.89-100.22h237.38"/>
      <path id="path2400" style="stroke:#000000;stroke-linecap:round;stroke-width:8;fill:#b3b3b3" d="m-233.35 70.494a63.64 63.64 0 1 1 -127.27 0 63.64 63.64 0 1 1 127.27 0z" transform="translate(-69.118 -17.919)"/>
      <path id="path2402" style="stroke:#000000;stroke-linecap:round;stroke-width:12.293;fill:#80e5ff" d="m-233.35 70.494a63.64 63.64 0 1 1 -127.27 0 63.64 63.64 0 1 1 127.27 0z" transform="matrix(.65079 0 0 .65079 -172.83 6.6981)"/>
      <path id="path2417" style="stroke:#000000;stroke-width:10;fill:none" d="m-478.81 304.85h224.25"/>
      <path id="rect2414" style="stroke:#000000;stroke-linecap:round;stroke-width:10;fill:#ff0000" d="m-375.19 199.79h18.18v272.74h-18.18v-272.74z"/>
      <path id="path2431" style="stroke:#000000;stroke-linecap:round;stroke-width:12.293;fill:none" d="m-233.35 70.494a63.64 63.64 0 1 1 -127.27 0 63.64 63.64 0 1 1 127.27 0z" transform="matrix(.65079 0 0 .65079 -172.83 6.6981)"/>
      <path id="path3211" style="stroke:#000000;stroke-width:10;fill:none" d="m-220.76 201.81s107.08-1.33 42.43 270.72c0 0-6.06-227.16-62.63-199.15"/>
      <path id="path3215" style="stroke:#000000;stroke-width:10;fill:none" d="m-511.14 201.81s-107.07-1.33-42.42 270.72c0 0 6.06-227.16 62.63-199.15"/>
    </g>
  </g>
</svg>