<?xml version="1.0" encoding="utf-8"?>
<svg version="1.1" id="svg4619" x="0px" y="0px" width="144" height="144" viewBox="0 0 144 144.00001" xmlns="http://www.w3.org/2000/svg">
  <g id="g6554" transform="matrix(12.528902, 0, 0, 11.834719, -22.071199, -9.600705)" style="">
    <path id="path6552" d="M 5.2835339,7.0218149 4.9909607,6.01637 5.5154256,5.2064495 6.1655328,4.5563423 7.7174016,3.6126383 8.283624,3.7594367 9.6677232,5.3113056 10.003262,6.0050781 c 0,0 -1.9083788,4.8635959 -2.1180908,4.8845669 -0.209712,0.02097 -1.992264,-0.02097 -1.992264,-0.02097 z" style="fill:#e35b42;fill-opacity:1;fill-rule:evenodd;stroke:none;stroke-width:1px;stroke-linecap:butt;stroke-linejoin:miter;stroke-opacity:1"/>
    <path id="path6550" style="fill:#e3d042;fill-opacity:1" d="M 8.4844,1.0002 C 8.338,1.0052 8.2009,1.0733 8.1094,1.1877 L 6.4492,3.2619 4.8438,1.7385 C 4.4079,1.3374 3.7599,1.893 4.0899,2.385 l 1.666,2.4004 C 5.9472,5.061 6.3503,5.0737 6.5586,4.8108 6.7249,4.6009 7,4.133 7.5,4.133 c 0.5,0 0.7929,0.4907 0.9414,0.6777 0.175,0.2204 0.4973,0.2531 0.7129,0.0723 l 1.668,-1.4004 C 11.2631,3.1085 10.8229,2.4091 10.295,2.6447 L 9,3.2268 9,1.5002 c 2e-4,-0.2823 -0.2334,-0.5087 -0.5156,-0.5 z"/>
    <path d="M 5 6 L 2.076 11.924 C 1.999 12.001 1.913 12.71 1.913 12.864 C 1.913 13.402 2.384 13 2.691 13 L 12.309 13 C 12.693 13 13.088 13.36 13.088 12.822 C 13.088 12.668 13.001 12.078 12.924 11.924 L 10 6 C 9.5 6 9 6.5 9 7 L 9 7.5 C 9 7.777 8.777 8 8.5 8 C 8.223 8 8 7.777 8 7.5 L 8 7 C 8 6.724 7.776 6.5 7.5 6.5 C 7.224 6.5 7 6.724 7 7 L 7 9 C 7 9.277 6.777 9.5 6.5 9.5 C 6.223 9.5 6 9.277 6 9 L 6 7 C 6 6.5 5.5 6 5 6 Z" style="fill:#b27a59;fill-opacity:1" id="path6447"/>
  </g>
</svg>